<?xml version="1.0" standalone="no"?>
<!DOCTYPE svg PUBLIC "-//W3C//DTD SVG 20010904//EN"
 "http://www.w3.org/TR/2001/REC-SVG-20010904/DTD/svg10.dtd">
<svg version="1.0" xmlns="http://www.w3.org/2000/svg"
 width="512.000000pt" height="512.000000pt" viewBox="0 0 512.000000 512.000000"
 preserveAspectRatio="xMidYMid meet">
<metadata>
Created by potrace 1.14, written by Peter Selinger 2001-2017
</metadata>
<g transform="translate(0.000000,512.000000) scale(0.100000,-0.100000)"
fill="#000000" stroke="none">
<path d="M1850 4684 c-116 -20 -226 -92 -287 -188 -49 -77 -64 -141 -68 -286
-2 -74 -4 -140 -4 -146 -1 -7 -160 -11 -523 -11 -288 0 -548 -2 -578 -4 -173
-10 -328 -144 -376 -323 -21 -78 -19 -777 2 -847 35 -117 116 -219 212 -268
98 -50 88 -49 1025 -50 482 -1 877 2 878 6 0 5 2 35 3 69 2 65 20 105 58 125
17 9 117 12 371 12 332 0 349 -1 375 -20 35 -25 51 -74 48 -141 l-2 -52 880 1
c953 1 934 0 1035 55 98 53 178 156 207 267 20 76 19 771 -1 848 -39 148 -150
261 -300 305 -54 15 -116 17 -617 17 -307 1 -558 3 -559 6 0 3 -2 67 -4 141
-3 141 -4 149 -28 216 -29 79 -104 171 -178 216 -26 17 -107 46 -149 55 -54
11 -1352 8 -1420 -3z m1348 -523 l-3 -106 -637 -1 -638 0 0 101 c0 56 2 104 5
106 2 3 291 5 640 5 l636 0 -3 -105z"/>
<path d="M76 2449 c-16 -5 -40 -21 -52 -36 l-23 -28 0 -785 c-1 -833 0 -841
47 -940 55 -114 185 -207 317 -227 22 -3 1021 -6 2220 -6 2156 1 2181 1 2236
21 151 54 249 162 285 312 11 43 14 226 14 833 0 848 2 815 -57 848 -38 21
-77 16 -132 -18 -59 -37 -123 -62 -175 -70 -23 -3 -429 -6 -903 -6 -774 -1
-863 -2 -864 -16 0 -9 -2 -88 -3 -176 -1 -174 -8 -199 -62 -223 -33 -16 -678
-17 -722 -1 -60 21 -67 45 -69 234 -1 94 -2 173 -2 176 -1 3 -398 5 -883 6
-872 0 -884 0 -944 21 -34 12 -84 35 -111 52 -57 35 -77 40 -117 29z"/>
</g>
</svg>
